<?xml version="1.0" encoding="UTF-8" standalone="no"?>
<svg
   xmlns:dc="http://purl.org/dc/elements/1.1/"
   xmlns:cc="http://creativecommons.org/ns#"
   xmlns:rdf="http://www.w3.org/1999/02/22-rdf-syntax-ns#"
   xmlns:svg="http://www.w3.org/2000/svg"
   xmlns="http://www.w3.org/2000/svg"
   xmlns:sodipodi="http://sodipodi.sourceforge.net/DTD/sodipodi-0.dtd"
   xmlns:inkscape="http://www.inkscape.org/namespaces/inkscape"
   inkscape:version="1.0 (4035a4fb49, 2020-05-01)"
   sodipodi:docname="nginx.svg"
   id="svg6"
   version="1.1"
   viewBox="0 0 9 9"
   height="48"
   width="48"
   role="img">
  <metadata
     id="metadata12">
    <rdf:RDF>
      <cc:Work
         rdf:about="">
        <dc:format>image/svg+xml</dc:format>
        <dc:type
           rdf:resource="http://purl.org/dc/dcmitype/StillImage" />
        <dc:title>Kotlin icon</dc:title>
      </cc:Work>
    </rdf:RDF>
  </metadata>
  <defs
     id="defs10" />
  <sodipodi:namedview
     inkscape:current-layer="svg6"
     inkscape:window-maximized="1"
     inkscape:window-y="0"
     inkscape:window-x="0"
     inkscape:cy="69.469528"
     inkscape:cx="107.37419"
     inkscape:zoom="4.7840193"
     fit-margin-bottom="0"
     fit-margin-right="0"
     fit-margin-left="0"
     fit-margin-top="0"
     showgrid="false"
     id="namedview8"
     inkscape:window-height="1054"
     inkscape:window-width="1920"
     inkscape:pageshadow="2"
     inkscape:pageopacity="0"
     guidetolerance="10"
     gridtolerance="10"
     objecttolerance="10"
     borderopacity="1"
     bordercolor="#666666"
     pagecolor="#ffffff" />
  <title
     id="title2">Kotlin icon</title>
  <path
     id="path851"
     d="M 4.4832989,8.6535022 C 4.4385429,8.6363361 0.95181118,6.6194024 0.93038253,6.5982695 0.91859376,6.5866875 0.90299944,6.5660467 0.89580203,6.552562 L 0.88277181,6.5280542 0.8813917,4.471535 c -0.00138,-1.8757062 -5.9151e-4,-2.0589452 0.007655,-2.0841463 0.0215718,-0.0649 -0.0914768,0.00331 1.8133106,-1.0956181 0.9599188,-0.55384288 1.7557915,-1.01163013 1.7686083,-1.01730528 0.033504,-0.014891 0.079813,-0.0186139 0.1138134,-0.0091 0.026721,0.007445 3.5102473,2.01374858 3.5549661,2.04748718 0.021365,0.016131 0.050981,0.064548 0.056193,0.091911 0.00196,0.010135 0.00579,0.018614 0.00869,0.018614 0.0029,0 0.00518,0.853919 0.00518,2.0395206 0,1.1217353 -0.00202,2.0395186 -0.00455,2.0395186 -0.00248,0 -0.00766,0.010961 -0.011789,0.02428 -0.0093,0.030713 -0.032326,0.064383 -0.058054,0.084548 -0.0182,0.014271 -3.4607778,2.0036083 -3.5195561,2.033829 -0.031871,0.016338 -0.1003904,0.020786 -0.1324273,0.00849 z M 2.99079,6.5280456 C 3.1436304,6.4836411 3.2545174,6.3740262 3.308632,6.2138374 l 0.013444,-0.04 0.0029,-1.2287671 0.0029,-1.2287691 1.071176,1.2820998 c 0.5891472,0.7051571 1.0917423,1.301872 1.1168791,1.3260369 0.187359,0.1800788 0.50329,0.2640563 0.7533402,0.2002025 0.096047,-0.024529 0.1835327,-0.076027 0.2502261,-0.1473184 0.050589,-0.054083 0.074559,-0.092883 0.098261,-0.1591485 l 0.017993,-0.050051 V 4.445682 2.7232319 L 6.6223061,2.6805233 C 6.5701794,2.5145085 6.437173,2.392294 6.2713897,2.3580507 c -0.056234,-0.011582 -0.1577628,-0.011582 -0.2139973,0 -0.1649396,0.034063 -0.2941776,0.151765 -0.3508134,0.3194717 l -0.013443,0.04 -0.0029,1.2306678 -0.0029,1.2306679 L 4.6039519,3.8822756 C 3.8605681,2.9926075 3.5082574,2.5751503 3.4813582,2.5521043 3.3712676,2.4577734 3.2338684,2.3933074 3.0765337,2.362181 3.0376306,2.3545256 2.9987071,2.3520458 2.9165786,2.3522506 2.8183597,2.3526457 2.8028065,2.3540297 2.7530869,2.3673489 2.5919528,2.4107394 2.4787412,2.4999416 2.4143932,2.6342138 2.3732151,2.720127 2.3762352,2.5686928 2.3779926,4.4684069 l 0.00157,1.7110232 0.017786,0.049864 c 0.059916,0.167442 0.2003265,0.2858654 0.370635,0.3126384 0.060123,0.00951 0.16465,0.0029 0.2228058,-0.014063 z"
     style="fill:#ffffff;fill-opacity:1;stroke-width:0.00571294" />
</svg>
