<?xml version="1.0" encoding="UTF-8" standalone="no"?>
<svg
   xmlns:dc="http://purl.org/dc/elements/1.1/"
   xmlns:cc="http://creativecommons.org/ns#"
   xmlns:rdf="http://www.w3.org/1999/02/22-rdf-syntax-ns#"
   xmlns:svg="http://www.w3.org/2000/svg"
   xmlns="http://www.w3.org/2000/svg"
   xmlns:sodipodi="http://sodipodi.sourceforge.net/DTD/sodipodi-0.dtd"
   xmlns:inkscape="http://www.inkscape.org/namespaces/inkscape"
   width="64"
   height="64"
   version="1"
   id="svg12"
   sodipodi:docname="pyappimage-circle.svg"
   inkscape:version="1.0 (4035a4fb49, 2020-05-01)"
   inkscape:export-filename="/home/srevinsaju/repo/pyappimage/assets/pyappimage.png"
   inkscape:export-xdpi="300"
   inkscape:export-ydpi="300">
  <metadata
     id="metadata18">
    <rdf:RDF>
      <cc:Work
         rdf:about="">
        <dc:format>image/svg+xml</dc:format>
        <dc:type
           rdf:resource="http://purl.org/dc/dcmitype/StillImage" />
        <dc:title></dc:title>
      </cc:Work>
    </rdf:RDF>
  </metadata>
  <defs
     id="defs16" />
  <sodipodi:namedview
     inkscape:document-rotation="0"
     pagecolor="#ffffff"
     bordercolor="#666666"
     borderopacity="1"
     objecttolerance="10"
     gridtolerance="10"
     guidetolerance="10"
     inkscape:pageopacity="0"
     inkscape:pageshadow="2"
     inkscape:window-width="1920"
     inkscape:window-height="1054"
     id="namedview14"
     showgrid="false"
     inkscape:zoom="6.7656252"
     inkscape:cx="26.567082"
     inkscape:cy="52.093448"
     inkscape:window-x="0"
     inkscape:window-y="0"
     inkscape:window-maximized="1"
     inkscape:current-layer="svg12" />
  <circle
     r="30.51145"
     cy="31.11388"
     cx="31.796324"
     id="path14"
     style="fill:#f2f2f2;fill-rule:evenodd" />
  <path
     style="opacity:0.2;stroke-width:0.801745"
     d="m 10.459829,25.085627 -0.172245,0.297523 c -0.252899,0.447848 -0.142585,1.067653 0.247415,1.403034 l 3.557611,3.121948 c 0.03622,-0.491751 0.0873,-0.978435 0.15972,-1.462537 l -3.717317,-3.263054 c -0.03143,-0.02886 -0.04746,-0.06735 -0.0752,-0.09781 z m 43.080331,0 c -0.02772,0.03047 -0.04376,0.07007 -0.07516,0.09709 l -3.717476,3.263375 c 0.07237,0.484102 0.123483,0.970786 0.159721,1.462537 L 53.46502,26.7862 c 0.389947,-0.335381 0.500298,-0.955186 0.247416,-1.403034 l -0.171571,-0.298244 z m -39.462911,6.82756 c -0.01336,0.266384 -0.03445,0.530507 -0.03445,0.801733 0,0.406832 0.0209,0.805903 0.05011,1.202601 l 0.15972,-0.14093 c -0.09204,-0.614127 -0.143992,-1.234668 -0.175419,-1.863227 z m 35.84549,0 c -0.03152,0.628463 -0.08349,1.249132 -0.175386,1.863388 l 0.159721,0.140929 c 0.02922,-0.396697 0.05011,-0.795768 0.05011,-1.2026 0,-0.271226 -0.02109,-0.535349 -0.03444,-0.801733 z m -39.46291,6.82756 c -0.316364,0.347952 -0.404715,0.893131 -0.172213,1.305221 l 4.490989,7.785632 c 0.260387,0.441594 0.846358,0.6588 1.331005,0.491687 l 4.666247,-1.579415 c 1.402088,1.122378 3.000728,2.037846 4.700723,2.702643 l 0.945788,4.804146 c 0.09605,0.503006 0.574683,0.90437 1.086733,0.911346 h 8.981978 c 0.512035,-0.0064 0.990717,-0.40834 1.086734,-0.911346 l 0.945788,-4.804146 c 1.698071,-0.665439 3.296727,-1.581018 4.698156,-2.703444 l 4.666408,1.57842 c 0.484632,0.167113 1.070619,-0.05003 1.331005,-0.491687 l 4.490989,-7.785632 c 0.232519,-0.411769 0.144152,-0.958182 -0.172244,-1.305942 l -4.318777,7.488027 c -0.260386,0.441659 -0.846373,0.6588 -1.331005,0.491687 L 43.220442,45.13853 c -1.402086,1.122379 -3.000726,2.034638 -4.700722,2.699596 l -0.945788,4.807192 c -0.09461,0.501885 -0.574041,0.904355 -1.085547,0.910769 h -8.981977 c -0.512035,-0.0069 -0.990686,-0.408339 -1.086733,-0.911346 L 25.475233,47.837549 C 23.773955,47.17211 22.17594,46.259738 20.773869,45.137311 l -4.666408,1.577811 c -0.484567,0.168364 -1.070473,-0.04971 -1.330877,-0.490661 l -4.318776,-7.488188 z"
     id="path2" />
  <path
     style="opacity:0.2;stroke-width:0.801745"
     d="m 29.869377,21.489052 c -0.634516,0 -1.076155,0.510818 -1.076155,1.145334 V 35.92025 h -4.8104 l 8.017333,9.620798 8.017331,-9.620798 H 35.207088 V 22.634386 c 0,-0.634516 -0.44164,-1.145334 -1.076156,-1.145334 z"
     id="path6" />
  <path
     id="path4-2"
     style="fill:#1fa5cd;stroke-width:0.801745"
     d="m 27.405626,9.4625498 -0.0016,0.00157 c -0.475925,0.051792 -0.894836,0.4405968 -0.981824,0.9113582 l -0.947374,4.805771 c -1.700156,0.664894 -3.297219,1.578733 -4.69929,2.701192 l -4.664839,-1.578436 c -0.484648,-0.167113 -1.072201,0.04846 -1.332589,0.49013 l -4.489457,7.78726 c -0.252899,0.447847 -0.144148,1.067672 0.245847,1.403053 l 3.7175,3.261782 c -0.130843,0.874643 -0.211398,1.755652 -0.211398,2.666742 0,0.911122 0.08047,1.790484 0.211398,2.665175 l -3.717466,3.261786 c -0.389947,0.335381 -0.498746,0.955206 -0.245847,1.403053 l 4.489457,7.787261 c 0.260388,0.441594 0.847941,0.657242 1.332589,0.490129 l 4.664839,-1.578435 c 1.402087,1.122378 3.0007,2.036234 4.700855,2.701191 l 0.945809,4.805771 c 0.09605,0.503008 0.576272,0.904384 1.088306,0.911359 h 8.978916 c 0.512035,-0.0064 0.99074,-0.408351 1.08674,-0.911359 l 0.947374,-4.805771 c 1.700156,-0.664893 3.298785,-1.578749 4.700856,-2.701191 l 4.664839,1.578435 c 0.484633,0.167113 1.072202,-0.04847 1.332588,-0.490129 l 4.489458,-7.787261 c 0.252882,-0.447847 0.144147,-1.067672 -0.245847,-1.403053 L 49.748,34.578147 c 0.130843,-0.874643 0.209832,-1.753925 0.209832,-2.665175 0,-0.911122 -0.07909,-1.792051 -0.209832,-2.666742 l 3.717466,-3.261786 c 0.389947,-0.335381 0.498729,-0.955206 0.245847,-1.403053 l -2.391141,-4.146524 a 8.9916624,8.9916624 0 0 1 -7.093563,3.468486 8.9916624,8.9916624 0 0 1 -8.991444,-8.993009 8.9916624,8.9916624 0 0 1 1.735027,-5.3084284 C 36.820108,9.5231093 36.659656,9.464863 36.489458,9.4625498 h -8.978916 c -0.03512,-8.177e-4 -0.06996,-8.177e-4 -0.104916,0 z" />
  <path
     style="fill:#ffffff;stroke-width:0.801745"
     d="m 29.869377,20.687331 c -0.634516,0 -1.076155,0.510818 -1.076155,1.145333 v 13.285864 h -4.8104 l 8.017333,9.620799 8.017331,-9.620799 H 35.207088 V 21.832664 c 0,-0.634515 -0.44164,-1.145333 -1.076156,-1.145333 z"
     id="path8" />
  <path
     style="opacity:0.2;fill:#ffffff;stroke-width:0.801745"
     d="m 27.405626,9.4625498 -0.0016,0.00156 c -0.475928,0.051795 -0.89484,0.4406002 -0.981828,0.9113622 l -0.947336,4.805773 c -1.700156,0.664894 -3.297219,1.578733 -4.69929,2.701192 l -4.664839,-1.578436 c -0.484648,-0.167113 -1.072201,0.04846 -1.332589,0.49013 l -4.489457,7.78726 c -0.161785,0.286496 -0.161617,0.638053 -0.04854,0.945808 0.01812,-0.04766 0.0233,-0.09937 0.04854,-0.144063 l 4.489457,-7.787261 c 0.260388,-0.441674 0.847941,-0.657242 1.332589,-0.490129 l 4.664839,1.578435 c 1.402071,-1.122458 2.999134,-2.036298 4.69929,-2.701191 l 0.947374,-4.805771 c 0.08699,-0.470762 0.505899,-0.859567 0.981824,-0.911358 l 0.0016,-0.0016 c 0.03496,-8.18e-4 0.0698,-8.18e-4 0.104916,0 l 8.978916,-0.8017452 c 0.480734,0.1393658 0.134715,0.6220012 0,0 h -8.978916 c -0.03512,-8.177e-4 -0.06996,-8.177e-4 -0.104916,0 z M 14.165875,29.972812 c -0.07283,0.637463 -0.125273,1.279841 -0.125273,1.94016 0,0.135243 0.01381,0.265351 0.01722,0.399306 0.01964,-0.768093 0.08281,-1.519845 0.194172,-2.264303 z m 35.66825,0 -0.08613,0.07516 c 0.111287,0.744513 0.174522,1.496191 0.194173,2.264303 0.0034,-0.13395 0.01566,-0.264059 0.01566,-0.399306 0,-0.660342 -0.05089,-1.3027 -0.123707,-1.94016 z m -35.66825,4.680499 -3.631341,3.186622 c -0.35103,0.301911 -0.457835,0.829035 -0.294391,1.25899 0.06368,-0.173323 0.153901,-0.336413 0.294391,-0.457245 L 14.252,35.379892 C 14.21596,35.13914 14.19354,34.8954 14.16587,34.653311 Z m 35.66825,0 c -0.02766,0.242076 -0.05011,0.485842 -0.08613,0.726581 l 3.717466,3.261786 c 0.140507,0.120832 0.230711,0.283922 0.29439,0.457245 0.163443,-0.429955 0.05668,-0.957079 -0.29439,-1.25899 z"
     id="path10"
     sodipodi:nodetypes="cccccccccccccccccccccccsccccccscccccccccccccc" />
  <g
     id="g867"
     transform="matrix(0.53439114,0,0,0.53439114,-3.0375258,-13.448665)">
    <path
       id="path10-3"
       d="m 87.352646,40.032324 c -3.03,0 -5.908,2.001 -5.719,4.156 v 2.844 h -2.094 c -2.164,0 -3.906,1.939 -3.906,4.969 v 1.562 c 0,3.03 1.742,5.469 3.906,5.469 h 2.094 v -3.125 c 0,-1.731 1.644,-2.875 3.375,-2.875 h 6.25 c 0,0 3.375,0 3.375,-3.375 v -5.469 c 0,-2.164 -2.689,-4.156 -5.719,-4.156 z m -2.219,3 c 0.828,0 1.5,0.672 1.5,1.5 0,0.828 -0.672,1.5 -1.5,1.5 -0.828,0 -1.5,-0.672 -1.5,-1.5 0,-0.828 0.672,-1.5 1.5,-1.5 z"
       style="fill:#4795d1" />
    <path
       id="path12-6"
       d="m 94.633646,47.032324 v 2.625 0.5 c 0,0.11462 -0.0368,0.25025 -0.0996,0.39649 -1.4e-4,6.1e-4 1.3e-4,10e-4 0,0.002 -0.19251,0.87462 -0.65906,1.4285 -1.18359,1.79296 -0.0715,0.0502 -0.14177,0.0957 -0.21485,0.13868 -0.12632,0.0736 -0.24667,0.14084 -0.37305,0.19531 -0.0752,0.0329 -0.14514,0.059 -0.21875,0.0859 -0.12242,0.0441 -0.23606,0.0874 -0.3496,0.11719 -0.0759,0.0204 -0.139,0.0318 -0.20899,0.0469 -0.0974,0.0205 -0.16606,0.0407 -0.24805,0.0527 -0.28612,0.0452 -0.47851,0.0468 -0.47851,0.0468 h -6.25 c -1.64259,0 -3.1902,1.03679 -3.3457,2.6211 -0.0167,0.23701 -0.0293,0.47977 -0.0293,0.7539 v 2.625 2.84375 c 0,2.164 2.68875,4.15625 5.71875,4.15625 h 1.5625 c 3.03,0 5.90815,-2.00085 5.71875,-4.15625 v -2.84375 h 2.09375 c 2.164,0 3.906254,-1.93875 3.906254,-4.96875 v -1.5625 c 0,-3.029 -1.742254,-5.46875 -3.906254,-5.46875 z m -3.5,13 c 0.82843,0 1.5,0.67157 1.5,1.5 0,0.82843 -0.67157,1.5 -1.5,1.5 -0.828,0 -1.5,-0.672 -1.5,-1.5 0,-0.828 0.672,-1.5 1.5,-1.5 z"
       style="fill:#ffa751" />
  </g>
</svg>
